<svg xmlns="http://www.w3.org/2000/svg" width="1250" height="500" viewBox="0 0 1250 500" role="img" aria-label="SPAM 중고거래 메인 배너">
  <defs>
    <linearGradient id="bg" x1="0" x2="1" y1="0" y2="1">
      <stop offset="0" stop-color="#F5EEE5"/>
      <stop offset="0.48" stop-color="#F9F5EF"/>
      <stop offset="1" stop-color="#EDE5DA"/>
    </linearGradient>
    <linearGradient id="floor" x1="0" x2="1">
      <stop offset="0" stop-color="#E6D2BE" stop-opacity="0"/>
      <stop offset="0.5" stop-color="#D8BFA7" stop-opacity="0.68"/>
      <stop offset="1" stop-color="#C9AB91" stop-opacity="0"/>
    </linearGradient>
    <filter id="shadow" x="-20%" y="-20%" width="140%" height="160%">
      <feDropShadow dx="0" dy="18" stdDeviation="18" flood-color="#4F3522" flood-opacity="0.18"/>
    </filter>
    <filter id="soft" x="-10%" y="-10%" width="120%" height="130%">
      <feGaussianBlur stdDeviation="20"/>
    </filter>
  </defs>
  <rect width="1250" height="500" rx="18" fill="url(#bg)"/>
  <circle cx="1030" cy="110" r="160" fill="#FFFFFF" opacity="0.36" filter="url(#soft)"/>
  <circle cx="780" cy="350" r="190" fill="#FFFFFF" opacity="0.22" filter="url(#soft)"/>
  <rect x="580" y="372" width="560" height="32" rx="16" fill="url(#floor)"/>
  <g filter="url(#shadow)">
    <rect x="742" y="212" width="248" height="154" rx="14" fill="#C69A69"/>
    <rect x="760" y="228" width="212" height="118" rx="10" fill="#E5C299"/>
    <rect x="615" y="278" width="475" height="34" rx="17" fill="#B9844F"/>
    <rect x="646" y="308" width="22" height="102" rx="11" fill="#9E683A"/>
    <rect x="1014" y="308" width="22" height="102" rx="11" fill="#9E683A"/>
    <rect x="660" y="314" width="390" height="72" rx="22" fill="#D39A5B"/>
  </g>
  <g filter="url(#shadow)">
    <path d="M830 208c0-42 28-66 70-66s70 24 70 66" fill="none" stroke="#181818" stroke-width="15" stroke-linecap="round"/>
    <rect x="790" y="195" width="220" height="170" rx="22" fill="#151515"/>
    <rect x="814" y="218" width="172" height="118" rx="16" fill="#222222"/>
    <rect x="847" y="190" width="24" height="26" rx="8" fill="#2E2E2E"/>
    <rect x="930" y="190" width="24" height="26" rx="8" fill="#2E2E2E"/>
  </g>
  <g filter="url(#shadow)">
    <rect x="690" y="268" width="98" height="70" rx="13" fill="#ECE6DC"/>
    <rect x="704" y="282" width="54" height="42" rx="7" fill="#111111"/>
    <circle cx="759" cy="303" r="25" fill="#2D2D2D"/>
    <circle cx="759" cy="303" r="15" fill="#AEB8BE"/>
    <circle cx="759" cy="303" r="7" fill="#252525"/>
    <rect x="713" y="255" width="38" height="18" rx="6" fill="#D2C5B2"/>
  </g>
  <g filter="url(#shadow)">
    <rect x="606" y="245" width="76" height="104" rx="10" fill="#FFFFFF"/>
    <rect x="616" y="258" width="56" height="78" rx="7" fill="#DCE8ED"/>
    <circle cx="644" cy="341" r="4" fill="#C2C9CC"/>
  </g>
  <g filter="url(#shadow)">
    <path d="M548 378c18-64 26-106-6-155" stroke="#7A5A3F" stroke-width="12" stroke-linecap="round" fill="none"/>
    <path d="M498 222h92l-25-70h-42z" fill="#CFAE86"/>
    <path d="M506 216h76" stroke="#A37C55" stroke-width="7" stroke-linecap="round"/>
    <ellipse cx="544" cy="385" rx="58" ry="13" fill="#8F6848" opacity="0.26"/>
  </g>
  <g opacity="0.92">
    <path d="M585 378c-34-56-54-92-30-125" stroke="#5F8D4E" stroke-width="6" stroke-linecap="round" fill="none"/>
    <path d="M566 284c-28-16-44-18-62 5 26 17 45 17 62-5z" fill="#6FA75D"/>
    <path d="M558 318c-30-4-48 3-58 31 33 5 50-7 58-31z" fill="#5D914F"/>
    <path d="M582 324c28-12 49-9 66 18-33 11-51 3-66-18z" fill="#7AAF63"/>
    <rect x="540" y="366" width="72" height="38" rx="10" fill="#E2C7A9"/>
  </g>
  <path d="M0 0h520v500H0z" fill="#F8F3ED" opacity="0.10"/>
</svg>
