<svg xmlns="http://www.w3.org/2000/svg" width="1250" height="500" viewBox="0 0 1250 500" role="img" aria-label="SPAM 안전거래 가이드 배너">
  <defs>
    <linearGradient id="bg" x1="0" x2="1" y1="0" y2="1">
      <stop offset="0" stop-color="#F5F7FA"/>
      <stop offset="0.52" stop-color="#FFF7F0"/>
      <stop offset="1" stop-color="#FFE7DB"/>
    </linearGradient>
    <filter id="shadow" x="-20%" y="-20%" width="140%" height="160%">
      <feDropShadow dx="0" dy="18" stdDeviation="18" flood-color="#2F241D" flood-opacity="0.16"/>
    </filter>
  </defs>
  <rect width="1250" height="500" rx="18" fill="url(#bg)"/>
  <circle cx="1020" cy="96" r="170" fill="#FFFFFF" opacity="0.42"/>
  <circle cx="805" cy="376" r="210" fill="#FFFFFF" opacity="0.26"/>
  <g filter="url(#shadow)">
    <path d="M858 115l172 62v102c0 106-70 165-172 202-102-37-172-96-172-202V177z" fill="#151515"/>
    <path d="M858 148l132 48v86c0 76-48 123-132 157-84-34-132-81-132-157v-86z" fill="#FFFFFF" opacity="0.98"/>
    <path d="M805 278l34 35 77-88" fill="none" stroke="#FF5A3E" stroke-width="18" stroke-linecap="round" stroke-linejoin="round"/>
  </g>
  <g filter="url(#shadow)">
    <rect x="610" y="250" width="166" height="112" rx="18" fill="#FFFFFF"/>
    <rect x="636" y="278" width="114" height="14" rx="7" fill="#111111" opacity="0.84"/>
    <rect x="636" y="306" width="92" height="12" rx="6" fill="#DFE4EA"/>
    <rect x="636" y="330" width="70" height="12" rx="6" fill="#DFE4EA"/>
    <circle cx="743" cy="330" r="18" fill="#FF5A3E"/>
  </g>
  <g filter="url(#shadow)">
    <rect x="962" y="290" width="150" height="96" rx="18" fill="#FFFFFF"/>
    <circle cx="1002" cy="338" r="22" fill="#111111"/>
    <path d="M996 338l8 8 16-20" fill="none" stroke="#FFFFFF" stroke-width="6" stroke-linecap="round" stroke-linejoin="round"/>
    <rect x="1040" y="318" width="46" height="10" rx="5" fill="#DFE4EA"/>
    <rect x="1040" y="340" width="56" height="10" rx="5" fill="#DFE4EA"/>
  </g>
  <path d="M0 0h530v500H0z" fill="#FFFFFF" opacity="0.08"/>
</svg>
