<svg xmlns="http://www.w3.org/2000/svg" width="1250" height="500" viewBox="0 0 1250 500">
  <defs>
    <linearGradient id="bg" x1="0" x2="1" y1="0" y2="1">
      <stop offset="0" stop-color="#fff4ec"/>
      <stop offset="0.55" stop-color="#f5eee6"/>
      <stop offset="1" stop-color="#f7f7f7"/>
    </linearGradient>
    <filter id="shadow" x="-20%" y="-20%" width="140%" height="140%">
      <feDropShadow dx="0" dy="14" stdDeviation="16" flood-color="#111111" flood-opacity="0.13"/>
    </filter>
  </defs>
  <rect width="1250" height="500" fill="url(#bg)"/>
  <circle cx="940" cy="225" r="148" fill="#ffffff" opacity="0.62"/>
  <circle cx="1050" cy="312" r="78" fill="#ffd9c8" opacity="0.55"/>
  <g filter="url(#shadow)" transform="translate(760 114)">
    <rect x="90" y="62" width="230" height="170" rx="26" fill="#ffffff"/>
    <path d="M205 25c58 0 105 47 105 105v75c0 76-56 116-105 136-49-20-105-60-105-136v-75C100 72 147 25 205 25z" fill="#222222" opacity="0.93"/>
    <path d="M163 166l31 31 67-78" fill="none" stroke="#ffffff" stroke-width="20" stroke-linecap="round" stroke-linejoin="round"/>
  </g>
  <g transform="translate(955 115)" fill="none" stroke="#222222" stroke-width="12" stroke-linecap="round" stroke-linejoin="round" opacity="0.78">
    <path d="M0 190c32 36 74 54 126 54s94-18 126-54"/>
    <path d="M40 122c0-42 36-76 86-76s86 34 86 76"/>
    <path d="M77 136h98"/>
  </g>
</svg>
